<?xml version="1.0" encoding="utf-8"?>
<!-- Generator: Adobe Illustrator 23.0.2, SVG Export Plug-In . SVG Version: 6.00 Build 0)  -->
<svg version="1.1" id="Calque_1" xmlns="http://www.w3.org/2000/svg" xmlns:xlink="http://www.w3.org/1999/xlink" x="0px" y="0px"
	 viewBox="0 0 450 450" style="enable-background:new 0 0 450 450;" xml:space="preserve">
<style type="text/css">
	.st0{fill:url(#SVGID_1_);stroke:#FFFFFF;stroke-miterlimit:10;}
</style>
<linearGradient id="SVGID_1_" gradientUnits="userSpaceOnUse" x1="52.4001" y1="229.9428" x2="405.4211" y2="229.9428">
	<stop  offset="0" style="stop-color:#FFFFFF"/>
	<stop  offset="1" style="stop-color:#000000"/>
</linearGradient>
<path class="st0" d="M68.01,300.65l-3.94-10.45c-34.16-90.55,9.25-192.53,96.96-227.8l8.12-3.26
	c87.71-35.27,186.51,9.55,220.67,100.09l3.94,10.45c34.16,90.55-9.25,192.53-96.96,227.8l-8.12,3.26
	C200.97,436.01,102.17,391.2,68.01,300.65z"/>
<g>
	<g>
		<path d="M145.33,141.61v-3.54h8.11v4.87h-0.58L145.33,141.61z M154.01,192.55l7.53,1.33v3.54h-16.21v-3.54l7.53-1.33H154.01z
			 M150.83,165.53c0-9.13,0-18.34-0.17-27.47h5.56c-0.17,8.95-0.17,18.16-0.17,27.47v5.41c0,9.04,0,17.37,0.17,26.49h-5.56
			c0.17-8.95,0.17-18.16,0.17-27.47V165.53z M159.17,173.95h-5.73v-4.08h6.6c7.12,0,9.9-5.76,9.9-14.18
			c0-8.59-3.13-13.56-10.13-13.56h-6.37v-4.08h7.47c9.61,0,14.53,7.27,14.53,17.63C175.44,165.62,170.98,173.95,159.17,173.95z"/>
		<path d="M183.61,178.82v-4.16c0-4.87-0.06-7.62-0.17-11.17l-4.63-0.8v-3.1l7.88-5.32l0.87,0.89l0.7,11.08v12.58
			c0,5.49,0.06,14.62,0.17,18.61h-4.98C183.55,193.44,183.61,184.31,183.61,178.82z M179.26,194.33l6.37-1.77h1.16l6.37,1.77v3.1
			h-13.9V194.33z M185.92,166.86h3.3l-1.45,0.62c1.85-8.24,5.39-13.2,8.8-13.2c1.68,0,3.42,1.24,4.11,3.01
			c0,4.16-1.04,6.47-3.36,6.47c-1.33,0-2.43-0.8-3.47-2.13l-1.56-2.04l2.84-0.89c-3.59,2.84-5.67,7.27-7.01,14.09h-2.2V166.86z"/>
		<path d="M203.76,176.61c0-14.71,6.54-22.33,13.2-22.33c6.54,0,13.2,7.62,13.2,22.33s-6.66,21.97-13.2,21.97
			C210.3,198.58,203.76,191.31,203.76,176.61z M224.96,176.61c0-11.87-2.95-18.34-7.99-18.34c-5.15,0-7.99,6.47-7.99,18.34
			s2.84,17.99,7.99,17.99C222,194.59,224.96,188.48,224.96,176.61z"/>
		<path d="M239.38,174.66c0-4.87-0.06-7.62-0.17-11.17l-4.63-0.8v-3.1l8.51-5.32l0.87,0.89l-0.17,11.96v21.18
			c0,14.71-0.35,21.27-3.42,26.32c-1.79,3.01-3.76,4.96-7.18,4.96c-3.47,0-5.04-2.75-5.04-5.05c0.52-2.3,1.68-3.46,3.36-3.46
			c1.51,0,2.72,0.89,4.29,2.57l2.61,2.84l-7.47,1.51v-3.46c0.58,1.24,2.2,2.04,3.36,2.04c1.62,0,2.95-0.53,3.82-3.81
			c0.93-3.72,1.27-10.81,1.27-24.46V174.66z M237.81,138.68c0-3.37,1.68-5.58,3.82-5.58s3.82,2.21,3.82,5.58
			c0,3.28-1.68,5.58-3.82,5.58S237.81,141.96,237.81,138.68z"/>
		<path d="M275.34,171.2c0,2.04-0.17,3.81-0.41,4.96h-21.37v-3.72h13.78c2.78,0,3.42-2.04,3.42-4.52c0-5.05-2.78-9.66-6.43-9.66
			c-3.71,0-7.99,4.78-7.99,17.46c0,11.25,3.71,17.28,9.5,17.28c3.71,0,6.02-2.57,8.11-6.29l1.33,1.6
			c-2.08,6.29-5.79,10.28-11.06,10.28c-7.76,0-12.8-8.24-12.8-21.71c0-13.56,6.02-22.59,13.2-22.59
			C270.59,154.28,275.34,160.48,275.34,171.2z"/>
		<path d="M291.5,194.15c1.27,0,2.43-0.8,3.94-2.48l1.33,2.39c-1.45,2.84-3.82,4.52-6.72,4.52c-4,0-6.49-3.19-6.49-10.01
			c0-2.13,0.06-3.99,0.06-7.44v-21.09h-4.86v-3.81l7.18-1.42l-2.32,2.92l1.74-14.35h3.36l-0.46,15.51v28.71
			C288.25,192.2,289.53,194.15,291.5,194.15z M296.25,155.43v4.61h-10.31v-4.61H296.25z"/>
		<path d="M299.95,195.21l-0.23-9.66h3.07l1.56,10.46l-2.84-2.04v-3.01c2.03,2.39,4.23,3.63,7.12,3.63c4.46,0,6.54-2.75,6.54-6.82
			c0-3.81-1.74-5.76-5.39-7.8l-2.66-1.51c-4.23-2.39-7.01-5.85-7.01-11.87c0-6.38,3.53-12.32,9.96-12.32c3.13,0,5.56,1.33,8.05,3.63
			l-0.23,8.95h-2.89l-1.16-8.95l2.08,1.42v2.3c-1.85-2.22-3.82-3.37-5.91-3.37c-3.59,0-5.44,2.39-5.44,6.11
			c0,3.99,1.45,5.49,5.39,7.71l1.74,0.97c5.79,3.28,7.99,7.44,7.99,12.94c0,6.56-3.76,12.58-11.18,12.58
			C305.28,198.58,302.79,197.43,299.95,195.21z"/>
		<path d="M118.22,247.94v-3.54h8.11v4.87h-0.58L118.22,247.94z M126.91,298.89l7.53,1.33v3.54h-16.21v-3.54l7.53-1.33H126.91z
			 M123.72,271.86c0-9.13,0-18.34-0.17-27.47h5.56c-0.17,9.21-0.17,17.9-0.17,28.35v2.66c0,10.01,0,19.23,0.17,28.35h-5.56
			c0.17-8.95,0.17-18.17,0.17-27.47V271.86z M126.33,272.31h7.24c6.25,0,9.27-5.14,9.27-12.32c0-7.44-2.61-11.52-8.63-11.52h-7.88
			v-4.08h7.93c8.86,0,14.07,5.76,14.07,15.59c0,7.53-3.88,14.35-11.47,15.33l0.17-0.71c4.17,0.62,6.72,3.54,8.28,11.52l2.84,14.71
			l-1.8-1.68l5.96,1.06v3.54c-1.04,0.53-2.43,0.89-4.17,0.89c-3.59,0-5.15-1.42-5.85-5.49l-2.37-14.44
			c-1.16-7.18-3.3-8.42-8.11-8.42h-5.5V272.31z"/>
		<path d="M179.78,277.53c0,2.04-0.17,3.81-0.41,4.96h-21.37v-3.72h13.78c2.78,0,3.42-2.04,3.42-4.52c0-5.05-2.78-9.66-6.43-9.66
			c-3.71,0-7.99,4.79-7.99,17.46c0,11.25,3.71,17.28,9.5,17.28c3.71,0,6.02-2.57,8.11-6.29l1.33,1.59
			c-2.08,6.29-5.79,10.28-11.06,10.28c-7.76,0-12.8-8.24-12.8-21.71c0-13.56,6.02-22.6,13.2-22.6
			C175.03,260.61,179.78,266.81,179.78,277.53z M171.44,240.23c1.1-2.66,2.08-3.54,3.07-3.54c1.1,0,2.14,1.06,2.14,3.28
			c0,1.15-0.29,2.48-1.85,4.7c-2.32,3.28-4.63,6.47-7.06,9.75l-1.45-1.68C167.97,248.56,169.65,244.39,171.44,240.23z"/>
		<path d="M194.84,280.55c2.43-1.33,6.08-2.92,8.98-3.72v3.19c-2.61,0.8-6.02,2.48-7.76,3.54c-5.21,3.1-5.79,6.47-5.79,9.04
			c0,4.7,2.03,6.56,4.69,6.56c2.03,0,3.19-1.15,6.83-5.14l1.16-1.33l0.81,1.86l-1.68,2.57c-3.47,5.32-5.44,7.8-8.98,7.8
			c-4.23,0-7.76-3.72-7.76-11.08C185.34,288.88,187.08,284.89,194.84,280.55z M201.5,295.61v-20.2c0-8.68-1.62-10.81-5.44-10.81
			c-1.33,0-3.07,0.27-5.21,1.6l2.32-2.75l-1.51,7.62c-0.52,2.57-1.39,3.99-2.95,3.99s-2.49-1.33-2.61-3.54
			c1.1-6.73,5.39-10.9,11.18-10.9c5.96,0,8.86,4.17,8.86,15.33v18.79c0,3.99,0.81,5.41,2.14,5.41c0.98,0,1.62-0.8,2.26-1.95
			l1.16,1.95c-1.39,3.37-2.95,4.52-4.92,4.52C203.58,304.65,201.5,301.1,201.5,295.61z"/>
		<path d="M222.41,238.19l0.81,0.71l-0.23,12.58v33.67c0,6.2,0.06,12.41,0.17,18.61h-4.98c0.12-6.2,0.17-12.41,0.17-18.61v-38.99
			l-4.81-0.89v-3.1L222.41,238.19z M227.79,300.66v3.1h-14.24v-3.1l6.54-1.77h1.16L227.79,300.66z"/>
		<path d="M235.67,303.76c0.12-3.99,0.17-13.11,0.17-18.61v-4.17c0-4.87-0.06-7.62-0.17-11.16l-4.75-0.8v-3.1l8.74-5.32l0.87,0.89
			l-0.17,11.96v11.7c0,5.49,0.06,14.62,0.17,18.61H235.67z M244.59,300.66v3.1h-13.32v-3.1l6.37-1.77h1.16L244.59,300.66z
			 M234.22,245.01c0-3.37,1.68-5.58,3.82-5.58s3.82,2.21,3.82,5.58c0,3.28-1.68,5.58-3.82,5.58S234.22,248.29,234.22,245.01z"/>
		<path d="M249.45,301.55l-0.23-9.66h3.07l1.56,10.46l-2.84-2.04v-3.01c2.03,2.39,4.23,3.63,7.12,3.63c4.46,0,6.54-2.75,6.54-6.82
			c0-3.81-1.74-5.76-5.39-7.8l-2.66-1.51c-4.23-2.39-7.01-5.85-7.01-11.87c0-6.38,3.53-12.32,9.96-12.32c3.13,0,5.56,1.33,8.05,3.63
			l-0.23,8.95h-2.89l-1.16-8.95l2.08,1.42v2.3c-1.85-2.21-3.82-3.37-5.91-3.37c-3.59,0-5.44,2.39-5.44,6.11
			c0,3.99,1.45,5.49,5.39,7.71l1.74,0.97c5.79,3.28,7.99,7.44,7.99,12.94c0,6.56-3.76,12.58-11.18,12.58
			C254.78,304.91,252.29,303.76,249.45,301.55z"/>
		<path d="M298.1,277.53c0,2.04-0.17,3.81-0.41,4.96h-21.37v-3.72h13.78c2.78,0,3.42-2.04,3.42-4.52c0-5.05-2.78-9.66-6.43-9.66
			c-3.71,0-7.99,4.79-7.99,17.46c0,11.25,3.71,17.28,9.5,17.28c3.71,0,6.02-2.57,8.11-6.29l1.33,1.59
			c-2.08,6.29-5.79,10.28-11.06,10.28c-7.76,0-12.8-8.24-12.8-21.71c0-13.56,6.02-22.6,13.2-22.6
			C293.35,260.61,298.1,266.81,298.1,277.53z M289.76,240.23c1.1-2.66,2.08-3.54,3.07-3.54c1.1,0,2.14,1.06,2.14,3.28
			c0,1.15-0.29,2.48-1.85,4.7c-2.32,3.28-4.63,6.47-7.06,9.75l-1.45-1.68C286.29,248.56,287.96,244.39,289.76,240.23z"/>
		<path d="M304.01,301.55l-0.23-9.66h3.07l1.56,10.46l-2.84-2.04v-3.01c2.03,2.39,4.23,3.63,7.12,3.63c4.46,0,6.54-2.75,6.54-6.82
			c0-3.81-1.74-5.76-5.39-7.8l-2.66-1.51c-4.23-2.39-7.01-5.85-7.01-11.87c0-6.38,3.53-12.32,9.96-12.32c3.13,0,5.56,1.33,8.05,3.63
			l-0.23,8.95h-2.89l-1.16-8.95l2.08,1.42v2.3c-1.85-2.21-3.82-3.37-5.91-3.37c-3.59,0-5.44,2.39-5.44,6.11
			c0,3.99,1.45,5.49,5.39,7.71l1.74,0.97c5.79,3.28,7.99,7.44,7.99,12.94c0,6.56-3.76,12.58-11.18,12.58
			C309.34,304.91,306.85,303.76,304.01,301.55z"/>
	</g>
</g>
</svg>
