<?xml version="1.0" encoding="utf-8"?>
<!-- Generator: Adobe Illustrator 23.0.2, SVG Export Plug-In . SVG Version: 6.00 Build 0)  -->
<svg version="1.1" id="Calque_1" xmlns="http://www.w3.org/2000/svg" xmlns:xlink="http://www.w3.org/1999/xlink" x="0px" y="0px"
	 viewBox="0 0 450 450" style="enable-background:new 0 0 450 450;" xml:space="preserve">
<style type="text/css">
	.st0{fill:url(#SVGID_1_);stroke:#FFFFFF;stroke-miterlimit:10;}
</style>
<linearGradient id="SVGID_1_" gradientUnits="userSpaceOnUse" x1="53.9365" y1="220.0594" x2="406.9574" y2="220.0594" gradientTransform="matrix(1 0 0 -1 0 450)">
	<stop  offset="0" style="stop-color:#FFFFFF"/>
	<stop  offset="1" style="stop-color:#000000"/>
</linearGradient>
<path class="st0" d="M69.5,300.6l-3.9-10.5c-34.2-90.6,9.3-192.5,97-227.8l8.1-3.3c87.7-35.3,186.5,9.5,220.7,100.1l3.9,10.4
	c34.2,90.6-9.3,192.5-97,227.8l-8.1,3.3C202.5,436,103.7,391.2,69.5,300.6z"/>
<g>
	<g>
		<path d="M133.5,150.9v-3.4h9.8v4.6h-0.7L133.5,150.9z M144,199.4l9.1,1.3v3.4h-19.7v-3.4l9.1-1.3H144z M140.1,173.6
			c0-8.7,0-17.5-0.2-26.1h6.8c-0.2,8.5-0.2,17.3-0.2,26.1v5.1c0,8.6,0,16.5,0.2,25.2h-6.8c0.2-8.5,0.2-17.3,0.2-26.1V173.6z
			 M150.3,181.7h-7v-3.9h8c8.6,0,12-5.5,12-13.5c0-8.2-3.8-12.9-12.3-12.9h-7.7v-3.9h9.1c11.7,0,17.6,6.9,17.6,16.8
			C170,173.7,164.6,181.7,150.3,181.7z"/>
		<path d="M179.9,186.3v-4c0-4.6-0.1-7.3-0.2-10.6l-5.6-0.8v-3l9.6-5.1l1.1,0.8l0.8,10.5v12c0,5.2,0.1,13.9,0.2,17.7h-6
			C179.9,200.2,179.9,191.5,179.9,186.3z M174.7,201l7.7-1.7h1.4l7.7,1.7v3h-16.9V201z M182.7,174.9h4l-1.8,0.6
			c2.3-7.8,6.5-12.6,10.7-12.6c2,0,4.1,1.2,5,2.9c0,4-1.3,6.2-4.1,6.2c-1.6,0-3-0.8-4.2-2l-1.9-1.9l3.4-0.8
			c-4.4,2.7-6.9,6.9-8.5,13.4h-2.7V174.9z"/>
		<path d="M204.4,184.2c0-14,7.9-21.2,16-21.2c7.9,0,16,7.3,16,21.2c0,14-8.1,20.9-16,20.9C212.4,205.1,204.4,198.2,204.4,184.2z
			 M230.1,184.2c0-11.3-3.6-17.5-9.7-17.5c-6.3,0-9.7,6.2-9.7,17.5c0,11.3,3.4,17.1,9.7,17.1C226.6,201.3,230.1,195.5,230.1,184.2z"
			/>
		<path d="M247.7,182.3c0-4.6-0.1-7.3-0.2-10.6l-5.6-0.8v-3l10.3-5.1l1.1,0.8l-0.2,11.4v20.2c0,14-0.4,20.2-4.1,25
			c-2.2,2.9-4.6,4.7-8.7,4.7c-4.2,0-6.1-2.6-6.1-4.8c0.6-2.2,2-3.3,4.1-3.3c1.8,0,3.3,0.8,5.2,2.4l3.2,2.7l-9.1,1.4v-3.3
			c0.7,1.2,2.7,1.9,4.1,1.9c2,0,3.6-0.5,4.6-3.6c1.1-3.5,1.5-10.3,1.5-23.3V182.3z M245.8,148.1c0-3.2,2-5.3,4.6-5.3
			s4.6,2.1,4.6,5.3c0,3.1-2,5.3-4.6,5.3S245.8,151.2,245.8,148.1z"/>
		<path d="M291.3,179c0,1.9-0.2,3.6-0.5,4.7h-25.9v-3.5h16.7c3.4,0,4.1-1.9,4.1-4.3c0-4.8-3.4-9.2-7.8-9.2c-4.5,0-9.7,4.6-9.7,16.6
			c0,10.7,4.5,16.4,11.5,16.4c4.5,0,7.3-2.4,9.8-6l1.6,1.5c-2.5,6-7,9.8-13.4,9.8c-9.4,0-15.5-7.8-15.5-20.7
			c0-12.9,7.3-21.5,16-21.5C285.5,162.9,291.3,168.8,291.3,179z"/>
		<path d="M310.9,200.9c1.5,0,3-0.8,4.8-2.4l1.6,2.3c-1.8,2.7-4.6,4.3-8.2,4.3c-4.9,0-7.9-3-7.9-9.5c0-2,0.1-3.8,0.1-7.1v-20.1h-5.9
			v-3.6l8.7-1.3l-2.8,2.8l2.1-13.7h4.1l-0.6,14.8v27.3C307,199,308.5,200.9,310.9,200.9z M316.7,164v4.4h-12.5V164H316.7z"/>
		<path d="M321.2,201.9l-0.3-9.2h3.7l1.9,10l-3.4-1.9v-2.9c2.5,2.3,5.1,3.5,8.6,3.5c5.4,0,7.9-2.6,7.9-6.5c0-3.6-2.1-5.5-6.5-7.4
			l-3.2-1.4c-5.1-2.3-8.5-5.6-8.5-11.3c0-6.1,4.3-11.7,12.1-11.7c3.8,0,6.8,1.3,9.8,3.5l-0.3,8.5h-3.5l-1.4-8.5l2.5,1.3v2.2
			c-2.3-2.1-4.6-3.2-7.2-3.2c-4.4,0-6.6,2.3-6.6,5.8c0,3.8,1.8,5.2,6.5,7.3l2.1,0.9c7,3.1,9.7,7.1,9.7,12.3c0,6.2-4.6,12-13.6,12
			C327.7,205.1,324.6,204,321.2,201.9z"/>
		<path d="M118.5,252.1v-3.4h9.8v4.6h-0.7L118.5,252.1z M129.1,300.5l9.1,1.3v3.4h-19.7v-3.4l9.1-1.3H129.1z M125.2,274.8
			c0-8.7,0-17.5-0.2-26.1h6.8c-0.2,8.5-0.2,17.3-0.2,26.1v5.1c0,8.6,0,16.5,0.2,25.2H125c0.2-8.5,0.2-17.3,0.2-26.1V274.8z
			 M135.4,282.8h-7V279h8c8.6,0,12-5.5,12-13.5c0-8.2-3.8-12.9-12.3-12.9h-7.7v-3.9h9.1c11.7,0,17.6,6.9,17.6,16.8
			C155.1,274.9,149.7,282.8,135.4,282.8z"/>
		<path d="M169.2,242.8l1,0.7l-0.3,12v32c0,5.9,0.1,11.8,0.2,17.7h-6c0.1-5.9,0.2-11.8,0.2-17.7v-37.1l-5.8-0.8v-3L169.2,242.8z
			 M175.8,302.2v3h-17.3v-3l7.9-1.7h1.4L175.8,302.2z"/>
		<path d="M192.3,283.1c3-1.3,7.4-2.8,10.9-3.5v3c-3.2,0.8-7.3,2.4-9.4,3.4c-6.3,3-7,6.2-7,8.6c0,4.5,2.5,6.2,5.7,6.2
			c2.5,0,3.9-1.1,8.3-4.9l1.4-1.3l1,1.8l-2,2.4c-4.2,5.1-6.6,7.4-10.9,7.4c-5.1,0-9.4-3.5-9.4-10.5
			C180.8,291,182.9,287.2,192.3,283.1z M200.4,297.4v-19.2c0-8.3-2-10.3-6.6-10.3c-1.6,0-3.7,0.3-6.3,1.5l2.8-2.6l-1.8,7.3
			c-0.6,2.4-1.7,3.8-3.6,3.8s-3-1.3-3.2-3.4c1.3-6.4,6.5-10.4,13.6-10.4c7.2,0,10.8,4,10.8,14.6v17.9c0,3.8,1,5.1,2.6,5.1
			c1.2,0,2-0.8,2.7-1.9l1.4,1.9c-1.7,3.2-3.6,4.3-6,4.3C202.9,306,200.4,302.7,200.4,297.4z"/>
		<path d="M221.4,305.2c0.1-3.8,0.2-12.5,0.2-17.7v-4c0-4.6-0.1-7.3-0.2-10.6l-5.6-0.8v-3l9.6-5.1l1.1,0.8l0.8,9.8v12.7
			c0,5.2,0.1,13.9,0.2,17.7H221.4z M232.3,302.2v3h-16.2v-3l7.7-1.7h1.4L232.3,302.2z M248.6,279.7v7.8c0,5.4,0.1,13.9,0.2,17.7h-6
			c0.1-3.8,0.2-12.3,0.2-17.7v-7.1c0-7.8-1.7-10.4-5.9-10.4c-3.5,0-6.4,1.7-10.4,5.8h-1.5V272h3.6l-3,1.5c3.3-5.3,8.9-9.4,13.9-9.4
			C245.7,264.1,248.6,268.6,248.6,279.7z M246.7,300.5l7,1.7v3h-16.2v-3l7.7-1.7H246.7z"/>
		<path d="M263.6,305.2c0.1-3.8,0.2-12.5,0.2-17.7v-4c0-4.6-0.1-7.3-0.2-10.6l-5.8-0.8v-3l10.6-5.1l1.1,0.8l-0.2,11.4v11.1
			c0,5.2,0.1,13.9,0.2,17.7H263.6z M274.4,302.2v3h-16.2v-3l7.7-1.7h1.4L274.4,302.2z M261.9,249.3c0-3.2,2-5.3,4.6-5.3
			s4.6,2.1,4.6,5.3c0,3.1-2,5.3-4.6,5.3S261.9,252.4,261.9,249.3z"/>
		<path d="M285.1,287.5v-17.9h-5.9V266l7.9-1.3l-2,1.3c0.7-9.7,1.8-15,5.7-19.2c3.3-3.6,7.3-4.8,11.2-4.8c6.2,0,11,3.4,11,8.5
			c-0.4,1.8-1.6,3.1-3.4,3.1c-1.8,0-3.1-1.2-4.4-3.3l-3.7-6l1.6,0.8c-3.9,0-7.2,1.5-9.3,4.1c-2.7,3.5-3.7,9-3.1,19.3v19
			c0,5.9,0.1,11.8,0.2,17.7h-6C285,299.3,285.1,293.4,285.1,287.5z M279.2,302.2l7.9-1.7h1.4l8.6,1.7v3h-18V302.2z M287.9,265.2
			h22.4v4.4h-22.4V265.2z M307.1,287.5v-4.2c0-5.9-0.1-9.4-0.2-13.7l-5.6-0.3v-3l10.6-2.2l1.1,0.8l-0.2,11v11.6
			c0,5.2,0.1,13.9,0.2,17.7h-6C307,301.4,307.1,292.7,307.1,287.5z M301.6,302.2l7.7-1.7h1.4l7,1.7v3h-16.2V302.2z"/>
		<path d="M352.3,280.2c0,1.9-0.2,3.6-0.5,4.7h-25.9v-3.5h16.7c3.4,0,4.1-1.9,4.1-4.3c0-4.8-3.4-9.2-7.8-9.2
			c-4.5,0-9.7,4.6-9.7,16.6c0,10.7,4.5,16.4,11.5,16.4c4.5,0,7.3-2.4,9.8-6l1.6,1.5c-2.5,6-7,9.8-13.4,9.8
			c-9.4,0-15.5-7.8-15.5-20.7c0-12.9,7.3-21.5,16-21.5C346.5,264.1,352.3,270,352.3,280.2z M342.2,244.7c1.3-2.5,2.5-3.4,3.7-3.4
			c1.3,0,2.6,1,2.6,3.1c0,1.1-0.4,2.4-2.3,4.5c-2.8,3.1-5.6,6.2-8.6,9.3l-1.8-1.6C337.9,252.6,340,248.7,342.2,244.7z"/>
	</g>
</g>
</svg>
