<?xml version="1.0" encoding="utf-8"?>
<!-- Generator: Adobe Illustrator 23.0.2, SVG Export Plug-In . SVG Version: 6.00 Build 0)  -->
<svg version="1.1" id="Calque_1" xmlns="http://www.w3.org/2000/svg" xmlns:xlink="http://www.w3.org/1999/xlink" x="0px" y="0px"
	 viewBox="0 0 450 450" style="enable-background:new 0 0 450 450;" xml:space="preserve">
<style type="text/css">
	.st0{fill:url(#SVGID_1_);stroke:#FFFFFF;stroke-miterlimit:10;}
</style>
<linearGradient id="SVGID_1_" gradientUnits="userSpaceOnUse" x1="52.4001" y1="229.9428" x2="405.4211" y2="229.9428">
	<stop  offset="0" style="stop-color:#FFFFFF"/>
	<stop  offset="1" style="stop-color:#000000"/>
</linearGradient>
<path class="st0" d="M68.01,300.65l-3.94-10.45c-34.16-90.55,9.25-192.53,96.96-227.8l8.12-3.26
	c87.71-35.27,186.51,9.55,220.67,100.09l3.94,10.45c34.16,90.55-9.25,192.53-96.96,227.8l-8.12,3.26
	C200.97,436.01,102.17,391.2,68.01,300.65z"/>
<g>
	<g>
		<path d="M145.33,141.61v-3.54h8.11v4.87h-0.58L145.33,141.61z M154.01,192.55l7.53,1.33v3.54h-16.21v-3.54l7.53-1.33H154.01z
			 M150.83,165.53c0-9.13,0-18.34-0.17-27.47h5.56c-0.17,8.95-0.17,18.16-0.17,27.47v5.41c0,9.04,0,17.37,0.17,26.49h-5.56
			c0.17-8.95,0.17-18.16,0.17-27.47V165.53z M159.17,173.95h-5.73v-4.08h6.6c7.12,0,9.9-5.76,9.9-14.18
			c0-8.59-3.13-13.56-10.13-13.56h-6.37v-4.08h7.47c9.61,0,14.53,7.27,14.53,17.63C175.44,165.62,170.98,173.95,159.17,173.95z"/>
		<path d="M183.61,178.82v-4.16c0-4.87-0.06-7.62-0.17-11.17l-4.63-0.8v-3.1l7.88-5.32l0.87,0.89l0.7,11.08v12.58
			c0,5.49,0.06,14.62,0.17,18.61h-4.98C183.55,193.44,183.61,184.31,183.61,178.82z M179.26,194.33l6.37-1.77h1.16l6.37,1.77v3.1
			h-13.9V194.33z M185.92,166.86h3.3l-1.45,0.62c1.85-8.24,5.39-13.2,8.8-13.2c1.68,0,3.42,1.24,4.11,3.01
			c0,4.16-1.04,6.47-3.36,6.47c-1.33,0-2.43-0.8-3.47-2.13l-1.56-2.04l2.84-0.89c-3.59,2.84-5.67,7.27-7.01,14.09h-2.2V166.86z"/>
		<path d="M203.76,176.61c0-14.71,6.54-22.33,13.2-22.33c6.54,0,13.2,7.62,13.2,22.33s-6.66,21.97-13.2,21.97
			C210.3,198.58,203.76,191.31,203.76,176.61z M224.96,176.61c0-11.87-2.95-18.34-7.99-18.34c-5.15,0-7.99,6.47-7.99,18.34
			s2.84,17.99,7.99,17.99C222,194.59,224.96,188.48,224.96,176.61z"/>
		<path d="M239.38,174.66c0-4.87-0.06-7.62-0.17-11.17l-4.63-0.8v-3.1l8.51-5.32l0.87,0.89l-0.17,11.96v21.18
			c0,14.71-0.35,21.27-3.42,26.32c-1.79,3.01-3.76,4.96-7.18,4.96c-3.47,0-5.04-2.75-5.04-5.05c0.52-2.3,1.68-3.46,3.36-3.46
			c1.51,0,2.72,0.89,4.29,2.57l2.61,2.84l-7.47,1.51v-3.46c0.58,1.24,2.2,2.04,3.36,2.04c1.62,0,2.95-0.53,3.82-3.81
			c0.93-3.72,1.27-10.81,1.27-24.46V174.66z M237.81,138.68c0-3.37,1.68-5.58,3.82-5.58s3.82,2.21,3.82,5.58
			c0,3.28-1.68,5.58-3.82,5.58S237.81,141.96,237.81,138.68z"/>
		<path d="M275.34,171.2c0,2.04-0.17,3.81-0.41,4.96h-21.37v-3.72h13.78c2.78,0,3.42-2.04,3.42-4.52c0-5.05-2.78-9.66-6.43-9.66
			c-3.71,0-7.99,4.78-7.99,17.46c0,11.25,3.71,17.28,9.5,17.28c3.71,0,6.02-2.57,8.11-6.29l1.33,1.6
			c-2.08,6.29-5.79,10.28-11.06,10.28c-7.76,0-12.8-8.24-12.8-21.71c0-13.56,6.02-22.59,13.2-22.59
			C270.59,154.28,275.34,160.48,275.34,171.2z"/>
		<path d="M291.5,194.15c1.27,0,2.43-0.8,3.94-2.48l1.33,2.39c-1.45,2.84-3.82,4.52-6.72,4.52c-4,0-6.49-3.19-6.49-10.01
			c0-2.13,0.06-3.99,0.06-7.44v-21.09h-4.86v-3.81l7.18-1.42l-2.32,2.92l1.74-14.35h3.36l-0.46,15.51v28.71
			C288.25,192.2,289.53,194.15,291.5,194.15z M296.25,155.43v4.61h-10.31v-4.61H296.25z"/>
		<path d="M299.95,195.21l-0.23-9.66h3.07l1.56,10.46l-2.84-2.04v-3.01c2.03,2.39,4.23,3.63,7.12,3.63c4.46,0,6.54-2.75,6.54-6.82
			c0-3.81-1.74-5.76-5.39-7.8l-2.66-1.51c-4.23-2.39-7.01-5.85-7.01-11.87c0-6.38,3.53-12.32,9.96-12.32c3.13,0,5.56,1.33,8.05,3.63
			l-0.23,8.95h-2.89l-1.16-8.95l2.08,1.42v2.3c-1.85-2.22-3.82-3.37-5.91-3.37c-3.59,0-5.44,2.39-5.44,6.11
			c0,3.99,1.45,5.49,5.39,7.71l1.74,0.97c5.79,3.28,7.99,7.44,7.99,12.94c0,6.56-3.76,12.58-11.18,12.58
			C305.28,198.58,302.79,197.43,299.95,195.21z"/>
		<path d="M118.22,247.94v-3.54h8.11v4.87h-0.58L118.22,247.94z M126.33,298.89v4.87h-8.11v-3.54l7.53-1.33H126.33z M123.72,271.86
			c0-9.13,0-18.34-0.17-27.47h5.56c-0.17,8.95-0.17,18.17-0.17,27.47v3.37c0,10.19,0,19.4,0.17,28.53h-5.56
			c0.17-8.95,0.17-18.17,0.17-27.47V271.86z M142.37,244.39l2.61,4.43h-18.65v-4.43H147l0.41,15.77h-3.24L142.37,244.39z
			 M139.42,275.5h-13.09v-4.08h13.09V275.5z M148.57,287.99l-0.41,15.77h-21.83v-4.43h19.8l-2.61,4.43l1.8-15.77H148.57z
			 M137.56,272.31l0.87-9.39h2.61v21h-2.61l-0.87-9.84V272.31z"/>
		<path d="M157.26,303.76c0.12-3.99,0.17-13.11,0.17-18.61v-4.17c0-4.87-0.06-7.62-0.17-11.16l-4.63-0.8v-3.1l7.88-5.32l0.87,0.89
			l0.7,10.28v13.38c0,5.49,0.06,14.62,0.17,18.61H157.26z M166.29,300.66v3.1h-13.32v-3.1l6.37-1.77h1.16L166.29,300.66z
			 M179.67,277v8.15c0,5.67,0.06,14.62,0.17,18.61h-4.98c0.12-3.99,0.17-12.94,0.17-18.61v-7.44c0-8.24-1.39-10.9-4.86-10.9
			c-2.9,0-5.27,1.77-8.57,6.11h-1.22v-3.99h2.95l-2.49,1.6c2.72-5.58,7.35-9.92,11.47-9.92C177.29,260.61,179.67,265.31,179.67,277z
			 M178.1,298.89l5.79,1.77v3.1h-13.32v-3.1l6.37-1.77H178.1z"/>
		<path d="M232.08,294.99v4.87l-3.59,1.24l1.45-13.11h3.53l-0.23,12.85c-3.65,3.01-7.64,4.25-11.7,4.25
			c-11.7,0-19.57-12.94-19.57-31.01c0-17.72,8.22-31.01,19.51-31.01c3.13,0,7.24,0.8,11.18,4.25l0.23,12.85h-3.53l-1.45-13.11
			l3.59,1.24v5.41c-3.3-4.7-6.54-6.2-9.32-6.2c-7.82,0-14.13,9.3-14.13,26.58s5.67,26.58,13.72,26.58
			C225.07,300.66,228.78,299.15,232.08,294.99z"/>
		<path d="M238.45,282.94c0-14.71,6.54-22.33,13.2-22.33c6.54,0,13.2,7.62,13.2,22.33c0,14.71-6.66,21.98-13.2,21.98
			C244.99,304.91,238.45,297.65,238.45,282.94z M259.64,282.94c0-11.87-2.95-18.34-7.99-18.34c-5.15,0-7.99,6.47-7.99,18.34
			c0,11.87,2.84,17.99,7.99,17.99C256.69,300.93,259.64,294.81,259.64,282.94z"/>
		<path d="M277.6,288.08c0,7.89,1.5,10.63,4.69,10.63c2.95,0,5.96-2.21,8.86-6.65h1.22v4.52h-2.95l2.03-1.33
			c-3.3,6.82-7.24,9.66-11,9.66c-4.63,0-7.53-4.25-7.47-15.95l0.17-23.39l1.22,1.68l-5.39-1.77v-3.1l8.34-1.15l0.58,0.89
			l-0.29,12.41V288.08z M291.38,304.47l-0.81-10.37l0.17-28.53l1.22,1.68l-5.38-1.77v-3.1l8.22-1.15l0.58,0.89l-0.17,12.41v26.49
			l-1.39-2.13l5.38,1.77v3.1L291.38,304.47z"/>
		<path d="M308.06,285.15v-4.17c0-4.87-0.06-7.62-0.17-11.16l-4.63-0.8v-3.1l7.88-5.32l0.87,0.89l0.7,11.08v12.58
			c0,5.49,0.06,14.62,0.17,18.61h-4.98C308,299.77,308.06,290.65,308.06,285.15z M303.72,300.66l6.37-1.77h1.16l6.37,1.77v3.1h-13.9
			V300.66z M310.38,273.19h3.3l-1.45,0.62c1.85-8.24,5.39-13.2,8.8-13.2c1.68,0,3.42,1.24,4.11,3.01c0,4.17-1.04,6.47-3.36,6.47
			c-1.33,0-2.43-0.8-3.47-2.13l-1.56-2.04l2.84-0.89c-3.59,2.84-5.67,7.27-7.01,14.09h-2.2V273.19z"/>
		<path d="M328.56,301.55l-0.23-9.66h3.07l1.56,10.46l-2.84-2.04v-3.01c2.03,2.39,4.23,3.63,7.12,3.63c4.46,0,6.54-2.75,6.54-6.82
			c0-3.81-1.74-5.76-5.39-7.8l-2.66-1.51c-4.23-2.39-7.01-5.85-7.01-11.87c0-6.38,3.53-12.32,9.96-12.32c3.13,0,5.56,1.33,8.05,3.63
			l-0.23,8.95h-2.89l-1.16-8.95l2.08,1.42v2.3c-1.85-2.21-3.82-3.37-5.91-3.37c-3.59,0-5.44,2.39-5.44,6.11
			c0,3.99,1.45,5.49,5.39,7.71l1.74,0.97c5.79,3.28,7.99,7.44,7.99,12.94c0,6.56-3.76,12.58-11.18,12.58
			C333.89,304.91,331.4,303.76,328.56,301.55z"/>
	</g>
</g>
</svg>
