<?xml version="1.0" encoding="utf-8"?>
<!-- Generator: Adobe Illustrator 23.0.2, SVG Export Plug-In . SVG Version: 6.00 Build 0)  -->
<svg version="1.1" id="Calque_1" xmlns="http://www.w3.org/2000/svg" xmlns:xlink="http://www.w3.org/1999/xlink" x="0px" y="0px"
	 viewBox="0 0 283.46 170.08" style="enable-background:new 0 0 283.46 170.08;" xml:space="preserve">
<style type="text/css">
	.st0{fill:url(#SVGID_1_);stroke:#FFFFFF;stroke-miterlimit:10;}
</style>
<linearGradient id="SVGID_1_" gradientUnits="userSpaceOnUse" x1="69.8212" y1="82.7821" x2="218.3628" y2="82.7821">
	<stop  offset="0" style="stop-color:#FFFFFF"/>
	<stop  offset="1" style="stop-color:#000000"/>
</linearGradient>
<path class="st0" d="M76.39,111.6l-1.66-4.26c-14.37-36.91,3.89-78.48,40.8-92.85l3.42-1.33c36.91-14.37,78.48,3.89,92.85,40.8
	l1.66,4.26c14.37,36.91-3.89,78.48-40.8,92.85l-3.42,1.33C132.33,166.78,90.76,148.51,76.39,111.6z"/>
<g>
	<g>
		<path d="M108.7,47.2v-1.44h3.41v1.99h-0.24L108.7,47.2z M112.36,67.97l3.17,0.54v1.44h-6.82v-1.44l3.17-0.54H112.36z
			 M111.02,56.96c0-3.72,0-7.48-0.07-11.2h2.34c-0.07,3.65-0.07,7.4-0.07,11.2v2.2c0,3.68,0,7.08,0.07,10.8h-2.34
			c0.07-3.65,0.07-7.4,0.07-11.2V56.96z M114.52,60.39h-2.41v-1.66h2.78c3,0,4.17-2.35,4.17-5.78c0-3.5-1.32-5.53-4.26-5.53h-2.68
			v-1.66h3.14c4.04,0,6.12,2.96,6.12,7.19C121.37,56.99,119.5,60.39,114.52,60.39z"/>
		<path d="M124.81,62.37v-1.7c0-1.99-0.02-3.11-0.07-4.55l-1.95-0.33v-1.26l3.31-2.17l0.37,0.36l0.29,4.51v5.13
			c0,2.24,0.02,5.96,0.07,7.58h-2.1C124.78,68.33,124.81,64.61,124.81,62.37z M122.98,68.69l2.68-0.72h0.49l2.68,0.72v1.26h-5.85
			V68.69z M125.78,57.5h1.39l-0.61,0.25c0.78-3.36,2.27-5.38,3.7-5.38c0.71,0,1.44,0.51,1.73,1.23c0,1.7-0.44,2.64-1.41,2.64
			c-0.56,0-1.02-0.33-1.46-0.87l-0.66-0.83l1.19-0.36c-1.51,1.16-2.39,2.96-2.95,5.74h-0.93V57.5z"/>
		<path d="M133.29,61.47c0-6,2.75-9.1,5.56-9.1c2.75,0,5.56,3.11,5.56,9.1c0,6-2.8,8.96-5.56,8.96
			C136.04,70.43,133.29,67.47,133.29,61.47z M142.21,61.47c0-4.84-1.24-7.48-3.36-7.48c-2.17,0-3.36,2.64-3.36,7.48
			c0,4.84,1.19,7.33,3.36,7.33C140.96,68.8,142.21,66.31,142.21,61.47z"/>
		<path d="M148.28,60.68c0-1.99-0.02-3.11-0.07-4.55l-1.95-0.33v-1.26l3.58-2.17l0.37,0.36l-0.07,4.88v8.63
			c0,6-0.15,8.67-1.44,10.73c-0.76,1.23-1.58,2.02-3.02,2.02c-1.46,0-2.12-1.12-2.12-2.06c0.22-0.94,0.71-1.41,1.41-1.41
			c0.63,0,1.15,0.36,1.8,1.05l1.1,1.16l-3.14,0.61v-1.41c0.24,0.51,0.93,0.83,1.41,0.83c0.68,0,1.24-0.22,1.61-1.55
			c0.39-1.52,0.54-4.41,0.54-9.97V60.68z M147.62,46.01c0-1.37,0.71-2.28,1.61-2.28s1.61,0.9,1.61,2.28c0,1.34-0.71,2.28-1.61,2.28
			S147.62,47.35,147.62,46.01z"/>
		<path d="M163.41,59.27c0,0.83-0.07,1.55-0.17,2.02h-8.99v-1.52h5.8c1.17,0,1.44-0.83,1.44-1.84c0-2.06-1.17-3.94-2.71-3.94
			c-1.56,0-3.36,1.95-3.36,7.12c0,4.59,1.56,7.04,4,7.04c1.56,0,2.53-1.05,3.41-2.56l0.56,0.65c-0.88,2.56-2.44,4.19-4.66,4.19
			c-3.26,0-5.38-3.36-5.38-8.85c0-5.53,2.53-9.21,5.56-9.21C161.41,52.37,163.41,54.9,163.41,59.27z"/>
		<path d="M170.21,68.62c0.54,0,1.02-0.33,1.66-1.01l0.56,0.98c-0.61,1.16-1.61,1.84-2.83,1.84c-1.68,0-2.73-1.3-2.73-4.08
			c0-0.87,0.02-1.63,0.02-3.03v-8.6h-2.05v-1.55l3.02-0.58l-0.97,1.19l0.73-5.85h1.41l-0.2,6.32v11.7
			C168.84,67.83,169.38,68.62,170.21,68.62z M172.2,52.84v1.88h-4.34v-1.88H172.2z"/>
		<path d="M173.76,69.06l-0.1-3.94h1.29l0.66,4.26l-1.19-0.83v-1.23c0.85,0.98,1.78,1.48,3,1.48c1.88,0,2.75-1.12,2.75-2.78
			c0-1.55-0.73-2.35-2.27-3.18l-1.12-0.61c-1.78-0.98-2.95-2.38-2.95-4.84c0-2.6,1.49-5.02,4.19-5.02c1.32,0,2.34,0.54,3.39,1.48
			l-0.1,3.65h-1.22l-0.49-3.65l0.88,0.58v0.94c-0.78-0.9-1.61-1.37-2.49-1.37c-1.51,0-2.29,0.98-2.29,2.49
			c0,1.63,0.61,2.24,2.27,3.14l0.73,0.4c2.44,1.34,3.36,3.03,3.36,5.27c0,2.67-1.58,5.13-4.7,5.13
			C176.01,70.43,174.96,69.96,173.76,69.06z"/>
		<path d="M97.3,90.55V89.1h3.41v1.99h-0.24L97.3,90.55z M100.71,111.31v1.99H97.3v-1.44l3.17-0.54H100.71z M99.61,100.3
			c0-3.72,0-7.48-0.07-11.2h2.34c-0.07,3.65-0.07,7.4-0.07,11.2v1.37c0,4.15,0,7.91,0.07,11.63h-2.34c0.07-3.65,0.07-7.4,0.07-11.2
			V100.3z M107.46,89.1l1.1,1.81h-7.85V89.1h8.7l0.17,6.43h-1.36L107.46,89.1z M106.22,101.78h-5.51v-1.66h5.51V101.78z
			 M110.07,106.87l-0.17,6.43h-9.19v-1.81h8.33l-1.1,1.81l0.76-6.43H110.07z M105.44,100.48l0.37-3.83h1.1v8.56h-1.1l-0.37-4.01
			V100.48z"/>
		<path d="M113.72,113.3c0.05-1.63,0.07-5.35,0.07-7.58v-1.7c0-1.99-0.02-3.11-0.07-4.55l-1.95-0.33v-1.26l3.31-2.17l0.37,0.36
			l0.29,4.19v5.45c0,2.24,0.02,5.96,0.07,7.58H113.72z M117.52,112.04v1.26h-5.6v-1.26l2.68-0.72h0.49L117.52,112.04z
			 M123.15,102.39v3.32c0,2.31,0.02,5.96,0.07,7.58h-2.1c0.05-1.63,0.07-5.27,0.07-7.58v-3.03c0-3.36-0.58-4.44-2.05-4.44
			c-1.22,0-2.22,0.72-3.61,2.49h-0.51v-1.63h1.24l-1.05,0.65c1.15-2.28,3.09-4.04,4.83-4.04
			C122.15,95.71,123.15,97.63,123.15,102.39z M122.49,111.31l2.44,0.72v1.26h-5.6v-1.26l2.68-0.72H122.49z"/>
		<path d="M145.21,109.72v1.99l-1.51,0.5l0.61-5.34h1.49l-0.1,5.24c-1.54,1.23-3.22,1.73-4.92,1.73c-4.92,0-8.24-5.27-8.24-12.64
			c0-7.22,3.46-12.64,8.21-12.64c1.32,0,3.05,0.33,4.7,1.73l0.1,5.24h-1.49l-0.61-5.35l1.51,0.51v2.2
			c-1.39-1.91-2.75-2.53-3.92-2.53c-3.29,0-5.95,3.79-5.95,10.83s2.39,10.84,5.77,10.84C142.26,112.04,143.82,111.42,145.21,109.72z
			"/>
		<path d="M147.89,104.81c0-6,2.75-9.1,5.56-9.1c2.75,0,5.56,3.11,5.56,9.1c0,6-2.8,8.96-5.56,8.96
			C150.64,113.77,147.89,110.81,147.89,104.81z M156.8,104.81c0-4.84-1.24-7.48-3.36-7.48c-2.17,0-3.36,2.64-3.36,7.48
			s1.19,7.33,3.36,7.33C155.56,112.14,156.8,109.65,156.8,104.81z"/>
		<path d="M164.36,106.91c0,3.21,0.63,4.33,1.97,4.33c1.24,0,2.51-0.9,3.73-2.71h0.51v1.84h-1.24l0.85-0.54
			c-1.39,2.78-3.05,3.94-4.63,3.94c-1.95,0-3.17-1.73-3.14-6.5l0.07-9.54l0.51,0.69l-2.27-0.72v-1.26l3.51-0.47l0.24,0.36
			l-0.12,5.06V106.91z M170.16,113.59l-0.34-4.23l0.07-11.63l0.51,0.69l-2.27-0.72v-1.26l3.46-0.47l0.24,0.36l-0.07,5.06v10.8
			l-0.58-0.87l2.27,0.72v1.26L170.16,113.59z"/>
		<path d="M177.18,105.71v-1.7c0-1.99-0.02-3.11-0.07-4.55l-1.95-0.33v-1.26l3.31-2.17l0.37,0.36l0.29,4.51v5.13
			c0,2.24,0.02,5.96,0.07,7.58h-2.1C177.15,111.67,177.18,107.95,177.18,105.71z M175.35,112.04l2.68-0.72h0.49l2.68,0.72v1.26
			h-5.85V112.04z M178.15,100.84h1.39l-0.61,0.25c0.78-3.36,2.27-5.38,3.7-5.38c0.71,0,1.44,0.5,1.73,1.23
			c0,1.7-0.44,2.64-1.41,2.64c-0.56,0-1.02-0.33-1.46-0.87l-0.66-0.83l1.19-0.36c-1.51,1.16-2.39,2.96-2.95,5.74h-0.93V100.84z"/>
		<path d="M185.8,112.4l-0.1-3.94H187l0.66,4.26l-1.19-0.83v-1.23c0.85,0.98,1.78,1.48,3,1.48c1.88,0,2.75-1.12,2.75-2.78
			c0-1.55-0.73-2.35-2.27-3.18l-1.12-0.61c-1.78-0.97-2.95-2.38-2.95-4.84c0-2.6,1.49-5.02,4.19-5.02c1.32,0,2.34,0.54,3.39,1.48
			l-0.1,3.65h-1.22l-0.49-3.65l0.88,0.58v0.94c-0.78-0.9-1.61-1.37-2.49-1.37c-1.51,0-2.29,0.97-2.29,2.49
			c0,1.63,0.61,2.24,2.27,3.14l0.73,0.4c2.44,1.34,3.36,3.03,3.36,5.27c0,2.67-1.58,5.13-4.7,5.13
			C188.04,113.77,187,113.3,185.8,112.4z"/>
	</g>
</g>
</svg>
